<svg width="55" height="55" viewBox="0 0 55 55" fill="none" xmlns="http://www.w3.org/2000/svg">
<path d="M16.0417 18.3334H9.16671C6.64587 18.3334 4.58337 16.2709 4.58337 13.75V9.16671C4.58337 6.64587 6.64587 4.58337 9.16671 4.58337H16.0417C18.5625 4.58337 20.625 6.64587 20.625 9.16671V13.75C20.625 16.2709 18.5625 18.3334 16.0417 18.3334ZM47.6667 16.0417H39.4167C37.9042 16.0417 36.6667 14.8042 36.6667 13.2917V9.62504C36.6667 8.11254 37.9042 6.87504 39.4167 6.87504H47.6667C49.1792 6.87504 50.4167 8.11254 50.4167 9.62504V13.2917C50.4167 14.8042 49.1792 16.0417 47.6667 16.0417ZM47.6667 33.2292H39.4167C37.9042 33.2292 36.6667 31.9917 36.6667 30.4792V26.8125C36.6667 25.3 37.9042 24.0625 39.4167 24.0625H47.6667C49.1792 24.0625 50.4167 25.3 50.4167 26.8125V30.4792C50.4167 31.9917 49.1792 33.2292 47.6667 33.2292Z" fill="black"/>
<path opacity="0.96" d="M36.6667 30.3646C37.6063 30.3646 38.3854 29.5855 38.3854 28.6459C38.3854 27.7063 37.6063 26.9271 36.6667 26.9271H30.3646V13.1771H36.6667C37.6063 13.1771 38.3854 12.398 38.3854 11.4584C38.3854 10.5188 37.6063 9.73962 36.6667 9.73962H20.625C19.6854 9.73962 18.9062 10.5188 18.9062 11.4584C18.9062 12.398 19.6854 13.1771 20.625 13.1771H26.9271V41.25C26.9271 44.7334 29.7458 47.5521 33.2292 47.5521H36.6667C37.6063 47.5521 38.3854 46.773 38.3854 45.8334C38.3854 44.8938 37.6063 44.1146 36.6667 44.1146H33.2292C31.6479 44.1146 30.3646 42.8313 30.3646 41.25V30.3646H36.6667Z" fill="black"/>
<path d="M47.6666 50.4167H39.4166C37.9041 50.4167 36.6666 49.1792 36.6666 47.6667V44C36.6666 42.4875 37.9041 41.25 39.4166 41.25H47.6666C49.1791 41.25 50.4166 42.4875 50.4166 44V47.6667C50.4166 49.1792 49.1791 50.4167 47.6666 50.4167Z" fill="black"/>
</svg>
